<svg xmlns="http://www.w3.org/2000/svg" xmlns:xlink="http://www.w3.org/1999/xlink" contentStyleType="text/css" data-diagram-type="SEQUENCE" height="1462px" preserveAspectRatio="none" style="width:1155px;height:1462px;background:#FFFFFF;" version="1.1" viewBox="0 0 1155 1462" width="1155px" zoomAndPan="magnify"><?plantuml 1.2026.5?><defs/><g><g class="title" data-source-line="1"><text fill="#000000" font-family="sans-serif" font-size="14" font-weight="700" lengthAdjust="spacing" textLength="692.5762" x="227.9602" y="27.9951">Diagrama de secventa - Popularea si afisarea meniului la pornirea aplicatiei (Punctul a)</text></g><g><title>.Aplicatie</title><rect fill="#FFFFFF" height="1164.9844" style="stroke:#181818;stroke-width:1;" width="10" x="303.9575" y="195.1563"/></g><g><title>meniu.Meniu</title><rect fill="#FFFFFF" height="29.1328" style="stroke:#181818;stroke-width:1;" width="10" x="557.3535" y="567.75"/></g><g><title>meniu.Meniu</title><rect fill="#FFFFFF" height="228.3281" style="stroke:#181818;stroke-width:1;" width="10" x="557.3535" y="626.0156"/></g><g><title>meniu.Meniu</title><rect fill="#FFFFFF" height="29.1328" style="stroke:#181818;stroke-width:1;" width="10" x="557.3535" y="1294.875"/></g><g><title>repo.MeniuRepository</title><rect fill="#FFFFFF" height="29.1328" style="stroke:#181818;stroke-width:1;" width="10" x="739.3555" y="224.2891"/></g><g><title>repo.MeniuRepository</title><rect fill="#FFFFFF" height="72.2656" style="stroke:#181818;stroke-width:1;" width="10" x="739.3555" y="282.5547"/></g><g><title>repo.MeniuRepository</title><rect fill="#FFFFFF" height="87.3984" style="stroke:#181818;stroke-width:1;" width="10" x="739.3555" y="383.9531"/></g><g><title>repo.MeniuRepository</title><rect fill="#FFFFFF" height="103.3984" style="stroke:#181818;stroke-width:1;" width="10" x="739.3555" y="883.4766"/></g><g><title>repo.MeniuRepository</title><rect fill="#FFFFFF" height="160.6641" style="stroke:#181818;stroke-width:1;" width="10" x="739.3555" y="1030.8125"/></g><g><title>SQLite</title><rect fill="#FFFFFF" height="29.1328" style="stroke:#181818;stroke-width:1;" width="10" x="1058.272" y="311.6875"/></g><g><title>SQLite</title><rect fill="#FFFFFF" height="29.1328" style="stroke:#181818;stroke-width:1;" width="10" x="1058.272" y="413.0859"/></g><g><title>SQLite</title><rect fill="#FFFFFF" height="29.1328" style="stroke:#181818;stroke-width:1;" width="10" x="1058.272" y="936.7422"/></g><g><title>SQLite</title><rect fill="#FFFFFF" height="29.1328" style="stroke:#181818;stroke-width:1;" width="10" x="1058.272" y="1059.9453"/></g><rect fill="none" height="669.9922" style="stroke:#000000;stroke-width:1.5;" width="880.1533" x="259.3433" y="529.4844"/><rect fill="none" height="59.2656" style="stroke:#000000;stroke-width:1.5;" width="313.9116" x="499.8877" y="782.0781"/><rect fill="none" height="75.3984" style="stroke:#000000;stroke-width:1.5;" width="479.1104" x="650.3862" y="898.4766"/><rect fill="none" height="59.2656" style="stroke:#000000;stroke-width:1.5;" width="344.5386" x="650.3862" y="1104.0781"/><rect fill="none" height="75.3984" style="stroke:#000000;stroke-width:1.5;" width="406.4717" x="259.3433" y="1256.6094"/><g class="participant-lifeline" data-entity-uid="part1" data-qualified-name="M" data-source-line="3" id="part1-lifeline"><g><title>Manager</title><rect fill="#000000" fill-opacity="0.00000" height="1257.25" width="8" x="34.6831" y="120.8906"/><line style="stroke:#181818;stroke-width:0.5;stroke-dasharray:5,5;" x1="38" x2="38" y1="120.8906" y2="1378.1406"/></g></g><g class="participant-lifeline" data-entity-uid="part2" data-qualified-name="App" data-source-line="4" id="part2-lifeline"><g><title>.Aplicatie</title><rect fill="#000000" fill-opacity="0.00000" height="1257.25" width="8" x="304.9575" y="120.8906"/><line style="stroke:#181818;stroke-width:0.5;stroke-dasharray:5,5;" x1="308.3433" x2="308.3433" y1="120.8906" y2="1378.1406"/></g></g><g class="participant-lifeline" data-entity-uid="part3" data-qualified-name="Meniu" data-source-line="5" id="part3-lifeline"><g><title>meniu.Meniu</title><rect fill="#000000" fill-opacity="0.00000" height="1257.25" width="8" x="558.3535" y="120.8906"/><line style="stroke:#181818;stroke-width:0.5;stroke-dasharray:5,5;" x1="561.8877" x2="561.8877" y1="120.8906" y2="1378.1406"/></g></g><g class="participant-lifeline" data-entity-uid="part4" data-qualified-name="Repo" data-source-line="6" id="part4-lifeline"><g><title>repo.MeniuRepository</title><rect fill="#000000" fill-opacity="0.00000" height="1257.25" width="8" x="740.3555" y="120.8906"/><line style="stroke:#181818;stroke-width:0.5;stroke-dasharray:5,5;" x1="743.3862" x2="743.3862" y1="120.8906" y2="1378.1406"/></g></g><g class="participant-lifeline" data-entity-uid="part5" data-qualified-name="DB" data-source-line="7" id="part5-lifeline"><g><title>SQLite</title><rect fill="#000000" fill-opacity="0.00000" height="1257.25" width="8" x="1059.272" y="120.8906"/><line style="stroke:#181818;stroke-width:0.5;stroke-dasharray:5,5;" x1="1063.0474" x2="1063.0474" y1="120.8906" y2="1378.1406"/></g></g><g class="participant participant-head" data-entity-uid="part1" data-qualified-name="M" data-source-line="3" id="part1-head"><text fill="#000000" font-family="sans-serif" font-size="14" lengthAdjust="spacing" textLength="61.3662" x="5" y="117.5889">Manager</text><ellipse cx="38.6831" cy="53.0938" fill="#E2E2F0" rx="8" ry="8" style="stroke:#181818;stroke-width:0.5;"/><path d="M38.6831,61.0938 L38.6831,88.0938 M25.6831,69.0938 L51.6831,69.0938 M38.6831,88.0938 L25.6831,103.0938 M38.6831,88.0938 L51.6831,103.0938" fill="none" style="stroke:#181818;stroke-width:0.5;"/></g><g class="participant participant-tail" data-entity-uid="part1" data-qualified-name="M" data-source-line="3" id="part1-tail"><text fill="#000000" font-family="sans-serif" font-size="14" lengthAdjust="spacing" textLength="61.3662" x="5" y="1390.1357">Manager</text><ellipse cx="38.6831" cy="1401.9375" fill="#E2E2F0" rx="8" ry="8" style="stroke:#181818;stroke-width:0.5;"/><path d="M38.6831,1409.9375 L38.6831,1436.9375 M25.6831,1417.9375 L51.6831,1417.9375 M38.6831,1436.9375 L25.6831,1451.9375 M38.6831,1436.9375 L51.6831,1451.9375" fill="none" style="stroke:#181818;stroke-width:0.5;"/></g><g class="participant participant-head" data-entity-uid="part2" data-qualified-name="App" data-source-line="4" id="part2-head"><rect fill="#E2E2F0" height="30.2969" rx="2.5" ry="2.5" style="stroke:#181818;stroke-width:0.5;" width="79.2285" x="269.3433" y="89.5938"/><text fill="#000000" font-family="sans-serif" font-size="14" lengthAdjust="spacing" textLength="65.2285" x="276.3433" y="109.5889">:Aplicatie</text></g><g class="participant participant-tail" data-entity-uid="part2" data-qualified-name="App" data-source-line="4" id="part2-tail"><rect fill="#E2E2F0" height="30.2969" rx="2.5" ry="2.5" style="stroke:#181818;stroke-width:0.5;" width="79.2285" x="269.3433" y="1377.1406"/><text fill="#000000" font-family="sans-serif" font-size="14" lengthAdjust="spacing" textLength="65.2285" x="276.3433" y="1397.1357">:Aplicatie</text></g><g class="participant participant-head" data-entity-uid="part3" data-qualified-name="Meniu" data-source-line="5" id="part3-head"><rect fill="#E2E2F0" height="30.2969" rx="2.5" ry="2.5" style="stroke:#181818;stroke-width:0.5;" width="104.9316" x="509.8877" y="89.5938"/><text fill="#000000" font-family="sans-serif" font-size="14" lengthAdjust="spacing" textLength="90.9316" x="516.8877" y="109.5889">meniu:Meniu</text></g><g class="participant participant-tail" data-entity-uid="part3" data-qualified-name="Meniu" data-source-line="5" id="part3-tail"><rect fill="#E2E2F0" height="30.2969" rx="2.5" ry="2.5" style="stroke:#181818;stroke-width:0.5;" width="104.9316" x="509.8877" y="1377.1406"/><text fill="#000000" font-family="sans-serif" font-size="14" lengthAdjust="spacing" textLength="90.9316" x="516.8877" y="1397.1357">meniu:Meniu</text></g><g class="participant participant-head" data-entity-uid="part4" data-qualified-name="Repo" data-source-line="6" id="part4-head"><rect fill="#E2E2F0" height="30.2969" rx="2.5" ry="2.5" style="stroke:#181818;stroke-width:0.5;" width="167.9385" x="660.3862" y="89.5938"/><text fill="#000000" font-family="sans-serif" font-size="14" lengthAdjust="spacing" textLength="153.9385" x="667.3862" y="109.5889">repo:MeniuRepository</text></g><g class="participant participant-tail" data-entity-uid="part4" data-qualified-name="Repo" data-source-line="6" id="part4-tail"><rect fill="#E2E2F0" height="30.2969" rx="2.5" ry="2.5" style="stroke:#181818;stroke-width:0.5;" width="167.9385" x="660.3862" y="1377.1406"/><text fill="#000000" font-family="sans-serif" font-size="14" lengthAdjust="spacing" textLength="153.9385" x="667.3862" y="1397.1357">repo:MeniuRepository</text></g><g class="participant participant-head" data-entity-uid="part5" data-qualified-name="DB" data-source-line="7" id="part5-head"><text fill="#000000" font-family="sans-serif" font-size="14" lengthAdjust="spacing" textLength="45.6982" x="1037.4229" y="101.292">SQLite</text><text fill="#000000" font-family="sans-serif" font-size="14" lengthAdjust="spacing" textLength="106.4492" x="1007.0474" y="117.5889">(restaurant.db)</text><path d="M1045.272,52.2969 C1045.272,42.2969 1063.272,42.2969 1063.272,42.2969 C1063.272,42.2969 1081.272,42.2969 1081.272,52.2969 L1081.272,78.2969 C1081.272,88.2969 1063.272,88.2969 1063.272,88.2969 C1063.272,88.2969 1045.272,88.2969 1045.272,78.2969 L1045.272,52.2969" fill="#E2E2F0" style="stroke:#181818;stroke-width:0.5;"/><path d="M1045.272,52.2969 C1045.272,62.2969 1063.272,62.2969 1063.272,62.2969 C1063.272,62.2969 1081.272,62.2969 1081.272,52.2969" fill="none" style="stroke:#181818;stroke-width:0.5;"/></g><g class="participant participant-tail" data-entity-uid="part5" data-qualified-name="DB" data-source-line="7" id="part5-tail"><text fill="#000000" font-family="sans-serif" font-size="14" lengthAdjust="spacing" textLength="45.6982" x="1037.4229" y="1390.1357">SQLite</text><text fill="#000000" font-family="sans-serif" font-size="14" lengthAdjust="spacing" textLength="106.4492" x="1007.0474" y="1406.4326">(restaurant.db)</text><path d="M1045.272,1419.7344 C1045.272,1409.7344 1063.272,1409.7344 1063.272,1409.7344 C1063.272,1409.7344 1081.272,1409.7344 1081.272,1419.7344 L1081.272,1445.7344 C1081.272,1455.7344 1063.272,1455.7344 1063.272,1455.7344 C1063.272,1455.7344 1045.272,1455.7344 1045.272,1445.7344 L1045.272,1419.7344" fill="#E2E2F0" style="stroke:#181818;stroke-width:0.5;"/><path d="M1045.272,1419.7344 C1045.272,1429.7344 1063.272,1429.7344 1063.272,1429.7344 C1063.272,1429.7344 1081.272,1429.7344 1081.272,1419.7344" fill="none" style="stroke:#181818;stroke-width:0.5;"/></g><g><title>.Aplicatie</title><rect fill="#FFFFFF" height="1164.9844" style="stroke:#181818;stroke-width:1;" width="10" x="303.9575" y="195.1563"/></g><g><title>meniu.Meniu</title><rect fill="#FFFFFF" height="29.1328" style="stroke:#181818;stroke-width:1;" width="10" x="557.3535" y="567.75"/></g><g><title>meniu.Meniu</title><rect fill="#FFFFFF" height="228.3281" style="stroke:#181818;stroke-width:1;" width="10" x="557.3535" y="626.0156"/></g><g><title>meniu.Meniu</title><rect fill="#FFFFFF" height="29.1328" style="stroke:#181818;stroke-width:1;" width="10" x="557.3535" y="1294.875"/></g><g><title>repo.MeniuRepository</title><rect fill="#FFFFFF" height="29.1328" style="stroke:#181818;stroke-width:1;" width="10" x="739.3555" y="224.2891"/></g><g><title>repo.MeniuRepository</title><rect fill="#FFFFFF" height="72.2656" style="stroke:#181818;stroke-width:1;" width="10" x="739.3555" y="282.5547"/></g><g><title>repo.MeniuRepository</title><rect fill="#FFFFFF" height="87.3984" style="stroke:#181818;stroke-width:1;" width="10" x="739.3555" y="383.9531"/></g><g><title>repo.MeniuRepository</title><rect fill="#FFFFFF" height="103.3984" style="stroke:#181818;stroke-width:1;" width="10" x="739.3555" y="883.4766"/></g><g><title>repo.MeniuRepository</title><rect fill="#FFFFFF" height="160.6641" style="stroke:#181818;stroke-width:1;" width="10" x="739.3555" y="1030.8125"/></g><g><title>SQLite</title><rect fill="#FFFFFF" height="29.1328" style="stroke:#181818;stroke-width:1;" width="10" x="1058.272" y="311.6875"/></g><g><title>SQLite</title><rect fill="#FFFFFF" height="29.1328" style="stroke:#181818;stroke-width:1;" width="10" x="1058.272" y="413.0859"/></g><g><title>SQLite</title><rect fill="#FFFFFF" height="29.1328" style="stroke:#181818;stroke-width:1;" width="10" x="1058.272" y="936.7422"/></g><g><title>SQLite</title><rect fill="#FFFFFF" height="29.1328" style="stroke:#181818;stroke-width:1;" width="10" x="1058.272" y="1059.9453"/></g><rect fill="#EEEEEE" height="3" style="stroke:#EEEEEE;stroke-width:1;" width="1149.4966" x="0" y="151.457"/><line style="stroke:#000000;stroke-width:1;" x1="0" x2="1149.4966" y1="151.457" y2="151.457"/><line style="stroke:#000000;stroke-width:1;" x1="0" x2="1149.4966" y1="154.457" y2="154.457"/><rect fill="#EEEEEE" height="23.1328" style="stroke:#000000;stroke-width:2;" width="153.0454" x="498.2256" y="140.8906"/><text fill="#000000" font-family="sans-serif" font-size="13" font-weight="700" lengthAdjust="spacing" textLength="134.5195" x="504.2256" y="156.9575">Pornirea aplicatiei</text><g class="message" data-entity-1="part1" data-entity-2="part2" data-source-line="11" id="msg1"><polygon fill="#181818" points="291.9575,191.1563,301.9575,195.1563,291.9575,199.1563,295.9575,195.1563" style="stroke:#181818;stroke-width:1;stroke-linejoin:miter;stroke-miterlimit:10;"/><line style="stroke:#181818;stroke-width:1;" x1="38.6831" x2="297.9575" y1="195.1563" y2="195.1563"/><text fill="#000000" font-family="sans-serif" font-size="13" lengthAdjust="spacing" textLength="117.019" x="45.6831" y="190.0903">porneste aplicatia</text></g><g class="message" data-entity-1="part2" data-entity-2="part4" data-source-line="14" id="msg2"><polygon fill="#181818" points="727.3555,220.2891,737.3555,224.2891,727.3555,228.2891,731.3555,224.2891" style="stroke:#181818;stroke-width:1;stroke-linejoin:miter;stroke-miterlimit:10;"/><line style="stroke:#181818;stroke-width:1;" x1="313.9575" x2="733.3555" y1="224.2891" y2="224.2891"/><text fill="#000000" font-family="sans-serif" font-size="13" lengthAdjust="spacing" textLength="250.8213" x="320.9575" y="219.2231">new MeniuRepository("restaurant.db")</text></g><g class="message" data-entity-1="part4" data-entity-2="part2" data-source-line="16" id="msg3"><polygon fill="#181818" points="324.9575,249.4219,314.9575,253.4219,324.9575,257.4219,320.9575,253.4219" style="stroke:#181818;stroke-width:1;stroke-linejoin:miter;stroke-miterlimit:10;"/><line style="stroke:#181818;stroke-width:1;stroke-dasharray:2,2;" x1="318.9575" x2="743.3555" y1="253.4219" y2="253.4219"/><text fill="#000000" font-family="sans-serif" font-size="13" lengthAdjust="spacing" textLength="29.5483" x="330.9575" y="248.356">repo</text></g><g class="message" data-entity-1="part2" data-entity-2="part4" data-source-line="19" id="msg4"><polygon fill="#181818" points="727.3555,278.5547,737.3555,282.5547,727.3555,286.5547,731.3555,282.5547" style="stroke:#181818;stroke-width:1;stroke-linejoin:miter;stroke-miterlimit:10;"/><line style="stroke:#181818;stroke-width:1;" x1="313.9575" x2="733.3555" y1="282.5547" y2="282.5547"/><text fill="#000000" font-family="sans-serif" font-size="13" lengthAdjust="spacing" textLength="139.3501" x="320.9575" y="277.4888">initializeazaSchema()</text></g><g class="message" data-entity-1="part4" data-entity-2="part5" data-source-line="21" id="msg5"><polygon fill="#181818" points="1046.272,307.6875,1056.272,311.6875,1046.272,315.6875,1050.272,311.6875" style="stroke:#181818;stroke-width:1;stroke-linejoin:miter;stroke-miterlimit:10;"/><line style="stroke:#181818;stroke-width:1;" x1="749.3555" x2="1052.272" y1="311.6875" y2="311.6875"/><text fill="#000000" font-family="sans-serif" font-size="13" lengthAdjust="spacing" textLength="289.9165" x="756.3555" y="306.6216">CREATE TABLE IF NOT EXISTS produs_meniu</text></g><g class="message" data-entity-1="part5" data-entity-2="part4" data-source-line="23" id="msg6"><polygon fill="#181818" points="760.3555,336.8203,750.3555,340.8203,760.3555,344.8203,756.3555,340.8203" style="stroke:#181818;stroke-width:1;stroke-linejoin:miter;stroke-miterlimit:10;"/><line style="stroke:#181818;stroke-width:1;stroke-dasharray:2,2;" x1="754.3555" x2="1062.272" y1="340.8203" y2="340.8203"/><text fill="#000000" font-family="sans-serif" font-size="13" lengthAdjust="spacing" textLength="18.7573" x="766.3555" y="335.7544">OK</text></g><g class="message" data-entity-1="part4" data-entity-2="part2" data-source-line="25" id="msg7"><polygon fill="#181818" points="324.9575,350.8203,314.9575,354.8203,324.9575,358.8203,320.9575,354.8203" style="stroke:#181818;stroke-width:1;stroke-linejoin:miter;stroke-miterlimit:10;"/><line style="stroke:#181818;stroke-width:1;stroke-dasharray:2,2;" x1="318.9575" x2="743.3555" y1="354.8203" y2="354.8203"/></g><g class="message" data-entity-1="part2" data-entity-2="part4" data-source-line="28" id="msg8"><polygon fill="#181818" points="727.3555,379.9531,737.3555,383.9531,727.3555,387.9531,731.3555,383.9531" style="stroke:#181818;stroke-width:1;stroke-linejoin:miter;stroke-miterlimit:10;"/><line style="stroke:#181818;stroke-width:1;" x1="313.9575" x2="733.3555" y1="383.9531" y2="383.9531"/><text fill="#000000" font-family="sans-serif" font-size="13" lengthAdjust="spacing" textLength="112.9629" x="320.9575" y="378.8872">numaraProduse()</text></g><g class="message" data-entity-1="part4" data-entity-2="part5" data-source-line="30" id="msg9"><polygon fill="#181818" points="1046.272,409.0859,1056.272,413.0859,1046.272,417.0859,1050.272,413.0859" style="stroke:#181818;stroke-width:1;stroke-linejoin:miter;stroke-miterlimit:10;"/><line style="stroke:#181818;stroke-width:1;" x1="749.3555" x2="1052.272" y1="413.0859" y2="413.0859"/><text fill="#000000" font-family="sans-serif" font-size="13" lengthAdjust="spacing" textLength="254.4966" x="756.3555" y="408.02">SELECT COUNT(*) FROM produs_meniu</text></g><g class="message" data-entity-1="part5" data-entity-2="part4" data-source-line="32" id="msg10"><polygon fill="#181818" points="760.3555,438.2188,750.3555,442.2188,760.3555,446.2188,756.3555,442.2188" style="stroke:#181818;stroke-width:1;stroke-linejoin:miter;stroke-miterlimit:10;"/><line style="stroke:#181818;stroke-width:1;stroke-dasharray:2,2;" x1="754.3555" x2="1062.272" y1="442.2188" y2="442.2188"/><text fill="#000000" font-family="sans-serif" font-size="13" lengthAdjust="spacing" textLength="8.271" x="766.3555" y="437.1528">0</text></g><g class="message" data-entity-1="part4" data-entity-2="part2" data-source-line="34" id="msg11"><polygon fill="#181818" points="324.9575,467.3516,314.9575,471.3516,324.9575,475.3516,320.9575,471.3516" style="stroke:#181818;stroke-width:1;stroke-linejoin:miter;stroke-miterlimit:10;"/><line style="stroke:#181818;stroke-width:1;stroke-dasharray:2,2;" x1="318.9575" x2="743.3555" y1="471.3516" y2="471.3516"/><text fill="#000000" font-family="sans-serif" font-size="13" lengthAdjust="spacing" textLength="8.271" x="330.9575" y="466.2856">0</text></g><rect fill="#EEEEEE" height="3" style="stroke:#EEEEEE;stroke-width:1;" width="1149.4966" x="0" y="499.918"/><line style="stroke:#000000;stroke-width:1;" x1="0" x2="1149.4966" y1="499.918" y2="499.918"/><line style="stroke:#000000;stroke-width:1;" x1="0" x2="1149.4966" y1="502.918" y2="502.918"/><rect fill="#EEEEEE" height="23.1328" style="stroke:#000000;stroke-width:2;" width="418.6313" x="365.4326" y="489.3516"/><text fill="#000000" font-family="sans-serif" font-size="13" font-weight="700" lengthAdjust="spacing" textLength="400.1055" x="371.4326" y="505.4185">Baza de date e goala -&gt; populam produsele obligatorii</text><path d="M259.3433,529.4844 L323.7861,529.4844 L323.7861,536.6172 L313.7861,546.6172 L259.3433,546.6172 L259.3433,529.4844" fill="#EEEEEE" style="stroke:#000000;stroke-width:1.5;"/><rect fill="none" height="669.9922" style="stroke:#000000;stroke-width:1.5;" width="880.1533" x="259.3433" y="529.4844"/><text fill="#000000" font-family="sans-serif" font-size="13" font-weight="700" lengthAdjust="spacing" textLength="19.4429" x="274.3433" y="542.5513">alt</text><text fill="#000000" font-family="sans-serif" font-size="11" font-weight="700" lengthAdjust="spacing" textLength="220.8916" x="338.7861" y="541.6948">[nu exista produse in baza de date]</text><g class="message" data-entity-1="part2" data-entity-2="part3" data-source-line="40" id="msg12"><polygon fill="#181818" points="545.3535,563.75,555.3535,567.75,545.3535,571.75,549.3535,567.75" style="stroke:#181818;stroke-width:1;stroke-linejoin:miter;stroke-miterlimit:10;"/><line style="stroke:#181818;stroke-width:1;" x1="313.9575" x2="551.3535" y1="567.75" y2="567.75"/><text fill="#000000" font-family="sans-serif" font-size="13" lengthAdjust="spacing" textLength="80.4502" x="320.9575" y="562.6841">new Meniu()</text></g><g class="message" data-entity-1="part3" data-entity-2="part2" data-source-line="42" id="msg13"><polygon fill="#181818" points="324.9575,592.8828,314.9575,596.8828,324.9575,600.8828,320.9575,596.8828" style="stroke:#181818;stroke-width:1;stroke-linejoin:miter;stroke-miterlimit:10;"/><line style="stroke:#181818;stroke-width:1;stroke-dasharray:2,2;" x1="318.9575" x2="561.3535" y1="596.8828" y2="596.8828"/><text fill="#000000" font-family="sans-serif" font-size="13" lengthAdjust="spacing" textLength="40.752" x="330.9575" y="591.8169">meniu</text></g><g class="message" data-entity-1="part2" data-entity-2="part3" data-source-line="45" id="msg14"><polygon fill="#181818" points="545.3535,622.0156,555.3535,626.0156,545.3535,630.0156,549.3535,626.0156" style="stroke:#181818;stroke-width:1;stroke-linejoin:miter;stroke-miterlimit:10;"/><line style="stroke:#181818;stroke-width:1;" x1="313.9575" x2="551.3535" y1="626.0156" y2="626.0156"/><text fill="#000000" font-family="sans-serif" font-size="13" lengthAdjust="spacing" textLength="177.5122" x="320.9575" y="620.9497">incarcaProduseObligatorii()</text></g><path d="M572,639.0156 L572,770.0156 L803,770.0156 L803,649.0156 L793,639.0156 L572,639.0156" fill="#FEFFDD" style="stroke:#181818;stroke-width:0.5;"/><path d="M793,639.0156 L793,649.0156 L803,649.0156 L793,639.0156" fill="#FEFFDD" style="stroke:#181818;stroke-width:0.5;"/><text fill="#000000" font-family="sans-serif" font-size="13" lengthAdjust="spacing" textLength="207.4604" x="578" y="656.0825">Instantiaza si adauga produsele</text><text fill="#000000" font-family="sans-serif" font-size="13" lengthAdjust="spacing" textLength="154.6289" x="578" y="671.2153">OBLIGATORII din enunt:</text><text fill="#000000" font-family="sans-serif" font-size="13" lengthAdjust="spacing" textLength="196.0029" x="578" y="686.3481">- Aperitive: bruschete cu rosii,</text><text fill="#000000" font-family="sans-serif" font-size="13" lengthAdjust="spacing" textLength="176.6616" x="586.2646" y="701.481">pesto, bruschete cu somon</text><text fill="#000000" font-family="sans-serif" font-size="13" lengthAdjust="spacing" textLength="210.2344" x="578" y="716.6138">- Bauturi nespirtoase: apa plata,</text><text fill="#000000" font-family="sans-serif" font-size="13" lengthAdjust="spacing" textLength="154.248" x="586.2646" y="731.7466">apa minerala, limonada</text><text fill="#000000" font-family="sans-serif" font-size="13" lengthAdjust="spacing" textLength="206.1021" x="578" y="746.8794">+ feluri principale (supa, carne,</text><text fill="#000000" font-family="sans-serif" font-size="13" lengthAdjust="spacing" textLength="143.5649" x="586.2646" y="762.0122">vegetarian, garnitura)</text><path d="M499.8877,782.0781 L576.5117,782.0781 L576.5117,789.2109 L566.5117,799.2109 L499.8877,799.2109 L499.8877,782.0781" fill="#EEEEEE" style="stroke:#000000;stroke-width:1.5;"/><rect fill="none" height="59.2656" style="stroke:#000000;stroke-width:1.5;" width="313.9116" x="499.8877" y="782.0781"/><text fill="#000000" font-family="sans-serif" font-size="13" font-weight="700" lengthAdjust="spacing" textLength="31.624" x="514.8877" y="795.145">loop</text><text fill="#000000" font-family="sans-serif" font-size="11" font-weight="700" lengthAdjust="spacing" textLength="217.2876" x="591.5117" y="794.2886">[pentru fiecare produs obligatoriu]</text><g class="message" data-entity-1="part3" data-entity-2="part3" data-source-line="60" id="msg15"><line style="stroke:#181818;stroke-width:1;" x1="567.3535" x2="609.3535" y1="820.3438" y2="820.3438"/><line style="stroke:#181818;stroke-width:1;" x1="609.3535" x2="609.3535" y1="820.3438" y2="833.3438"/><line style="stroke:#181818;stroke-width:1;" x1="568.3535" x2="609.3535" y1="833.3438" y2="833.3438"/><polygon fill="#181818" points="578.3535,829.3438,568.3535,833.3438,578.3535,837.3438,574.3535,833.3438" style="stroke:#181818;stroke-width:1;stroke-linejoin:miter;stroke-miterlimit:10;"/><text fill="#000000" font-family="sans-serif" font-size="13" lengthAdjust="spacing" textLength="148.002" x="574.3535" y="815.2778">adaugaProdus(produs)</text></g><g class="message" data-entity-1="part3" data-entity-2="part2" data-source-line="62" id="msg16"><polygon fill="#181818" points="324.9575,850.3438,314.9575,854.3438,324.9575,858.3438,320.9575,854.3438" style="stroke:#181818;stroke-width:1;stroke-linejoin:miter;stroke-miterlimit:10;"/><line style="stroke:#181818;stroke-width:1;stroke-dasharray:2,2;" x1="318.9575" x2="561.3535" y1="854.3438" y2="854.3438"/></g><g class="message" data-entity-1="part2" data-entity-2="part4" data-source-line="65" id="msg17"><polygon fill="#181818" points="727.3555,879.4766,737.3555,883.4766,727.3555,887.4766,731.3555,883.4766" style="stroke:#181818;stroke-width:1;stroke-linejoin:miter;stroke-miterlimit:10;"/><line style="stroke:#181818;stroke-width:1;" x1="313.9575" x2="733.3555" y1="883.4766" y2="883.4766"/><text fill="#000000" font-family="sans-serif" font-size="13" lengthAdjust="spacing" textLength="146.999" x="320.9575" y="878.4106">salveazaMeniu(meniu)</text></g><path d="M650.3862,898.4766 L727.0103,898.4766 L727.0103,905.6094 L717.0103,915.6094 L650.3862,915.6094 L650.3862,898.4766" fill="#EEEEEE" style="stroke:#000000;stroke-width:1.5;"/><rect fill="none" height="75.3984" style="stroke:#000000;stroke-width:1.5;" width="479.1104" x="650.3862" y="898.4766"/><text fill="#000000" font-family="sans-serif" font-size="13" font-weight="700" lengthAdjust="spacing" textLength="31.624" x="665.3862" y="911.5435">loop</text><text fill="#000000" font-family="sans-serif" font-size="11" font-weight="700" lengthAdjust="spacing" textLength="248.8643" x="742.0103" y="910.687">[pentru fiecare ProdusMeniu din meniu]</text><g class="message" data-entity-1="part4" data-entity-2="part5" data-source-line="68" id="msg18"><polygon fill="#181818" points="1046.272,932.7422,1056.272,936.7422,1046.272,940.7422,1050.272,936.7422" style="stroke:#181818;stroke-width:1;stroke-linejoin:miter;stroke-miterlimit:10;"/><line style="stroke:#181818;stroke-width:1;" x1="749.3555" x2="1052.272" y1="936.7422" y2="936.7422"/><text fill="#000000" font-family="sans-serif" font-size="13" lengthAdjust="spacing" textLength="205.7339" x="756.3555" y="931.6763">INSERT INTO produs_meniu (...)</text></g><g class="message" data-entity-1="part5" data-entity-2="part4" data-source-line="70" id="msg19"><polygon fill="#181818" points="760.3555,961.875,750.3555,965.875,760.3555,969.875,756.3555,965.875" style="stroke:#181818;stroke-width:1;stroke-linejoin:miter;stroke-miterlimit:10;"/><line style="stroke:#181818;stroke-width:1;stroke-dasharray:2,2;" x1="754.3555" x2="1062.272" y1="965.875" y2="965.875"/><text fill="#000000" font-family="sans-serif" font-size="13" lengthAdjust="spacing" textLength="66.8916" x="766.3555" y="960.8091">id generat</text></g><g class="message" data-entity-1="part4" data-entity-2="part2" data-source-line="73" id="msg20"><polygon fill="#181818" points="324.9575,982.875,314.9575,986.875,324.9575,990.875,320.9575,986.875" style="stroke:#181818;stroke-width:1;stroke-linejoin:miter;stroke-miterlimit:10;"/><line style="stroke:#181818;stroke-width:1;stroke-dasharray:2,2;" x1="318.9575" x2="743.3555" y1="986.875" y2="986.875"/></g><line style="stroke:#000000;stroke-width:1;stroke-dasharray:2,2;" x1="259.3433" x2="1139.4966" y1="995.875" y2="995.875"/><text fill="#000000" font-family="sans-serif" font-size="11" font-weight="700" lengthAdjust="spacing" textLength="132.3652" x="264.3433" y="1006.0854">[exista deja produse]</text><g class="message" data-entity-1="part2" data-entity-2="part4" data-source-line="77" id="msg21"><polygon fill="#181818" points="727.3555,1026.8125,737.3555,1030.8125,727.3555,1034.8125,731.3555,1030.8125" style="stroke:#181818;stroke-width:1;stroke-linejoin:miter;stroke-miterlimit:10;"/><line style="stroke:#181818;stroke-width:1;" x1="313.9575" x2="733.3555" y1="1030.8125" y2="1030.8125"/><text fill="#000000" font-family="sans-serif" font-size="13" lengthAdjust="spacing" textLength="96.8716" x="320.9575" y="1025.7466">incarcaMeniu()</text></g><g class="message" data-entity-1="part4" data-entity-2="part5" data-source-line="79" id="msg22"><polygon fill="#181818" points="1046.272,1055.9453,1056.272,1059.9453,1046.272,1063.9453,1050.272,1059.9453" style="stroke:#181818;stroke-width:1;stroke-linejoin:miter;stroke-miterlimit:10;"/><line style="stroke:#181818;stroke-width:1;" x1="749.3555" x2="1052.272" y1="1059.9453" y2="1059.9453"/><text fill="#000000" font-family="sans-serif" font-size="13" lengthAdjust="spacing" textLength="197.8628" x="756.3555" y="1054.8794">SELECT * FROM produs_meniu</text></g><g class="message" data-entity-1="part5" data-entity-2="part4" data-source-line="81" id="msg23"><polygon fill="#181818" points="760.3555,1085.0781,750.3555,1089.0781,760.3555,1093.0781,756.3555,1089.0781" style="stroke:#181818;stroke-width:1;stroke-linejoin:miter;stroke-miterlimit:10;"/><line style="stroke:#181818;stroke-width:1;stroke-dasharray:2,2;" x1="754.3555" x2="1062.272" y1="1089.0781" y2="1089.0781"/><text fill="#000000" font-family="sans-serif" font-size="13" lengthAdjust="spacing" textLength="103.9429" x="766.3555" y="1084.0122">randuri produse</text></g><path d="M650.3862,1104.0781 L727.0103,1104.0781 L727.0103,1111.2109 L717.0103,1121.2109 L650.3862,1121.2109 L650.3862,1104.0781" fill="#EEEEEE" style="stroke:#000000;stroke-width:1.5;"/><rect fill="none" height="59.2656" style="stroke:#000000;stroke-width:1.5;" width="344.5386" x="650.3862" y="1104.0781"/><text fill="#000000" font-family="sans-serif" font-size="13" font-weight="700" lengthAdjust="spacing" textLength="31.624" x="665.3862" y="1117.145">loop</text><text fill="#000000" font-family="sans-serif" font-size="11" font-weight="700" lengthAdjust="spacing" textLength="130.7915" x="742.0103" y="1116.2886">[pentru fiecare rand]</text><g class="message" data-entity-1="part4" data-entity-2="part4" data-source-line="84" id="msg24"><line style="stroke:#181818;stroke-width:1;" x1="749.3555" x2="791.3555" y1="1142.3438" y2="1142.3438"/><line style="stroke:#181818;stroke-width:1;" x1="791.3555" x2="791.3555" y1="1142.3438" y2="1155.3438"/><line style="stroke:#181818;stroke-width:1;" x1="750.3555" x2="791.3555" y1="1155.3438" y2="1155.3438"/><polygon fill="#181818" points="760.3555,1151.3438,750.3555,1155.3438,760.3555,1159.3438,756.3555,1155.3438" style="stroke:#181818;stroke-width:1;stroke-linejoin:miter;stroke-miterlimit:10;"/><text fill="#000000" font-family="sans-serif" font-size="13" lengthAdjust="spacing" textLength="216.5693" x="756.3555" y="1137.2778">construiesteProdus(rs, categorie)</text></g><g class="message" data-entity-1="part4" data-entity-2="part2" data-source-line="86" id="msg25"><polygon fill="#181818" points="324.9575,1187.4766,314.9575,1191.4766,324.9575,1195.4766,320.9575,1191.4766" style="stroke:#181818;stroke-width:1;stroke-linejoin:miter;stroke-miterlimit:10;"/><line style="stroke:#181818;stroke-width:1;stroke-dasharray:2,2;" x1="318.9575" x2="743.3555" y1="1191.4766" y2="1191.4766"/><text fill="#000000" font-family="sans-serif" font-size="13" lengthAdjust="spacing" textLength="40.752" x="330.9575" y="1186.4106">meniu</text></g><rect fill="#EEEEEE" height="3" style="stroke:#EEEEEE;stroke-width:1;" width="1149.4966" x="0" y="1227.043"/><line style="stroke:#000000;stroke-width:1;" x1="0" x2="1149.4966" y1="1227.043" y2="1227.043"/><line style="stroke:#000000;stroke-width:1;" x1="0" x2="1149.4966" y1="1230.043" y2="1230.043"/><rect fill="#EEEEEE" height="23.1328" style="stroke:#000000;stroke-width:2;" width="239.4751" x="455.0107" y="1216.4766"/><text fill="#000000" font-family="sans-serif" font-size="13" font-weight="700" lengthAdjust="spacing" textLength="220.9492" x="461.0107" y="1232.5435">Afisarea meniului pe categorii</text><path d="M259.3433,1256.6094 L335.9673,1256.6094 L335.9673,1263.7422 L325.9673,1273.7422 L259.3433,1273.7422 L259.3433,1256.6094" fill="#EEEEEE" style="stroke:#000000;stroke-width:1.5;"/><rect fill="none" height="75.3984" style="stroke:#000000;stroke-width:1.5;" width="406.4717" x="259.3433" y="1256.6094"/><text fill="#000000" font-family="sans-serif" font-size="13" font-weight="700" lengthAdjust="spacing" textLength="31.624" x="274.3433" y="1269.6763">loop</text><text fill="#000000" font-family="sans-serif" font-size="11" font-weight="700" lengthAdjust="spacing" textLength="309.8477" x="350.9673" y="1268.8198">[pentru fiecare CategorieMeniu (cele 4 categorii)]</text><g class="message" data-entity-1="part2" data-entity-2="part3" data-source-line="93" id="msg26"><polygon fill="#181818" points="545.3535,1290.875,555.3535,1294.875,545.3535,1298.875,549.3535,1294.875" style="stroke:#181818;stroke-width:1;stroke-linejoin:miter;stroke-miterlimit:10;"/><line style="stroke:#181818;stroke-width:1;" x1="313.9575" x2="551.3535" y1="1294.875" y2="1294.875"/><text fill="#000000" font-family="sans-serif" font-size="13" lengthAdjust="spacing" textLength="224.396" x="320.9575" y="1289.8091">getProdusePeCategorie(categorie)</text></g><g class="message" data-entity-1="part3" data-entity-2="part2" data-source-line="95" id="msg27"><polygon fill="#181818" points="324.9575,1320.0078,314.9575,1324.0078,324.9575,1328.0078,320.9575,1324.0078" style="stroke:#181818;stroke-width:1;stroke-linejoin:miter;stroke-miterlimit:10;"/><line style="stroke:#181818;stroke-width:1;stroke-dasharray:2,2;" x1="318.9575" x2="561.3535" y1="1324.0078" y2="1324.0078"/><text fill="#000000" font-family="sans-serif" font-size="13" lengthAdjust="spacing" textLength="128.2163" x="330.9575" y="1318.9419">List&lt;ProdusMeniu&gt;</text></g><g class="message" data-entity-1="part2" data-entity-2="part1" data-source-line="99" id="msg28"><polygon fill="#181818" points="49.6831,1356.1406,39.6831,1360.1406,49.6831,1364.1406,45.6831,1360.1406" style="stroke:#181818;stroke-width:1;stroke-linejoin:miter;stroke-miterlimit:10;"/><line style="stroke:#181818;stroke-width:1;stroke-dasharray:2,2;" x1="43.6831" x2="307.9575" y1="1360.1406" y2="1360.1406"/><text fill="#000000" font-family="sans-serif" font-size="13" lengthAdjust="spacing" textLength="241.2744" x="55.6831" y="1355.0747">meniul este afisat pe cele 4 categorii</text></g><?plantuml-src ZLPDRzf04BtxLumucHQY7df2JIH8I8KA8GLNwg5IDTWJPojxRQrtQPjVtzbTum_Y9k6GcDtvU3FptXWjT4Pm8p1Lc2Ca11N5Hv8QOGhtHMaoL8HG2S07KRdddAGmcH6G8PI5ai8UOfc96BKW0U6zaR4s6U0u233MXO8DIan90LQm2KfKMiIYHAbXD9kV74VsTbwM_NkNRBQnVvs1U-gRA2eBRx7Zfqfmmh_ErduD4jHum8fWjF-w5ff-o51HfT4eThv83cDdUhC8WijBBlXvEPUNGR21wPN51ZDNCVjJOuAsHd54FhBe0sl6rZOvcqlw3MVOmb4Fm6ZS1d28dUUqIQXS5TItESiYf60WcNWYVC9z_4WvXiDXhxXKThZUBUVH4gBvOhs4rItSRIDOVb_jepsKgaXCzTCrlWt13MB7QPjo-wKBYg_xi5z3B4sE2kzTBdePwtwvNbv7SBtzTXU5xyPmkzjktehomuiW-zSU9hDWmKsqIaZiAK5Q83ETVKedXxpEJQoRuf2957cemlC4CysL0VqHFE2J7Ky73fsG0V2dxeQZHfSct0fxtO3oVBT7thJ5dZStdHgy-L068MDKyQdZsnRuS4Pt9Wl-haJwgA5uw42ndvNa4YMpxiblXmHDYcrh6hljOhtwF8-skzKA4ku4IIFrhBcUCavIpDuZpU2WJCNavQIn0SLo4PF64A1arHIJlb5Lv8Ni15kWqKO9xcTL2gKB5lwCbSh0Cju3tMZsC1UI50zt0fdWE5n3O_0U7YYpaKh5dUDDmzCEArEoBVTHKZVKaLBIg0JA2QHyAHW2-gwIJ5mNVJ-peYYv3AcLWGT178ZgZdMOrBQuddWxGzzaFyBGEpPfXZZoEZjgcLIO7Utgy1Hqp3fZXHF7_shmY7noE-EynvIUc5Tt--Kkud_HjgTX22ykBiQDJrUpfxE-iaK2ATdnwSQWB_LkNyvsqvcn5pvbBDLQkGdzQhWyqAvQIuE2RHerjCFU3IoleNBxfVAB8l5KR04zhtLeCDRpsHpgg7712bP6s9TPJIbLMNPhIfc6D7wXWyFBnvLk7UmIdJ_xkL1I4znloo74rwVqdarXRDVinzPnFBJRM7xrNhkd9a1uLiaRLkgQX_-fG-QhOG6v4Xq4Y-7KZGpypm9RjtR5da7llclO-ny0?></g></svg>